<?xml version="1.0" standalone="no"?>
<!DOCTYPE svg PUBLIC "-//W3C//DTD SVG 20010904//EN"
 "http://www.w3.org/TR/2001/REC-SVG-20010904/DTD/svg10.dtd">
<svg version="1.0" xmlns="http://www.w3.org/2000/svg"
 width="512.000000pt" height="512.000000pt" viewBox="0 0 512.000000 512.000000"
 preserveAspectRatio="xMidYMid meet">
<metadata>
Created by potrace 1.16, written by Peter Selinger 2001-2019
</metadata>
<g transform="translate(0.000000,512.000000) scale(0.100000,-0.100000)"
fill="#000000" stroke="none">
<path d="M2235 5104 c-591 -80 -1100 -334 -1510 -755 -192 -197 -330 -388
-448 -621 -192 -376 -277 -737 -277 -1168 0 -431 85 -792 277 -1168 118 -233
256 -424 448 -621 413 -424 923 -678 1518 -756 156 -20 478 -20 634 0 595 78
1105 332 1518 756 192 197 330 388 448 621 192 376 277 737 277 1168 0 431
-85 792 -277 1168 -118 233 -256 424 -448 621 -413 424 -923 678 -1518 756
-146 19 -500 19 -642 -1z m687 -1752 c42 -12 99 -31 127 -42 l50 -22 -40 -79
c-21 -43 -41 -79 -43 -79 -2 0 -33 11 -68 24 -143 54 -299 69 -430 42 -201
-43 -344 -190 -405 -416 -25 -92 -25 -368 0 -460 58 -217 187 -350 384 -396
92 -22 314 -14 431 15 121 30 113 34 110 -61 l-3 -82 -90 -24 c-126 -33 -383
-42 -505 -18 -362 74 -553 352 -552 806 0 254 65 443 203 594 93 102 256 189
402 216 89 16 341 5 429 -18z m-1882 -707 l0 -715 353 -2 352 -3 0 -80 0 -80
-447 -3 -448 -2 0 793 c0 437 3 797 7 800 3 4 46 7 95 7 l88 0 0 -715z m3230
630 l0 -85 -350 0 -350 0 0 -290 0 -290 330 0 330 0 0 -85 0 -85 -330 0 -330
0 0 -340 0 -340 -95 0 -95 0 0 800 0 800 445 0 445 0 0 -85z"/>
</g>
</svg>
